<svg preserveAspectRatio="none" overflow="visible" style="display: block;" width="13.6" height="13.6" viewBox="0 0 13.6 13.6" fill="none" xmlns="http://www.w3.org/2000/svg">
<path id="Icon" d="M4.13333 0.8H2.13333C1.77971 0.8 1.44057 0.940476 1.19052 1.19052C0.940476 1.44057 0.8 1.77971 0.8 2.13333V4.13333M12.8 4.13333V2.13333C12.8 1.77971 12.6595 1.44057 12.4095 1.19052C12.1594 0.940476 11.8203 0.8 11.4667 0.8H9.46667M9.46667 12.8H11.4667C11.8203 12.8 12.1594 12.6595 12.4095 12.4095C12.6595 12.1594 12.8 11.8203 12.8 11.4667V9.46667M0.8 9.46667V11.4667C0.8 11.8203 0.940476 12.1594 1.19052 12.4095C1.44057 12.6595 1.77971 12.8 2.13333 12.8H4.13333" stroke="#1E1E1E" stroke-width="1.6" stroke-linecap="round" stroke-linejoin="round"/>
</svg>
